<mxfile host="65bd71144e">
    <diagram id="rkoJ88ErM1z-N53FgeUg" name="Page-1">
        <mxGraphModel dx="1280" dy="728" grid="1" gridSize="10" guides="1" tooltips="1" connect="1" arrows="1" fold="1" page="1" pageScale="1" pageWidth="827" pageHeight="1169" math="0" shadow="0">
            <root>
                <mxCell id="0"/>
                <mxCell id="1" parent="0"/>
                <mxCell id="2" value="&lt;b&gt;&lt;i&gt;&lt;u&gt;Scene Descriptor&lt;/u&gt;&lt;/i&gt;&lt;/b&gt;&lt;div&gt;id or name&lt;/div&gt;&lt;div&gt;Entities [...]&lt;/div&gt;&lt;div&gt;Position: {center, edges,bbox}&lt;/div&gt;&lt;div&gt;Background NGSI Link&lt;/div&gt;&lt;div&gt;Semantics NGSI Link&lt;/div&gt;" style="rounded=0;whiteSpace=wrap;html=1;" vertex="1" parent="1">
                    <mxGeometry x="30" y="250" width="210" height="280" as="geometry"/>
                </mxCell>
                <mxCell id="3" value="&lt;b&gt;&lt;i&gt;&lt;u&gt;Asset Descriptor&lt;/u&gt;&lt;/i&gt;&lt;/b&gt;&lt;div&gt;id&lt;/div&gt;&lt;div&gt;type: [label,light,device]&lt;/div&gt;&lt;div&gt;Asset NGSI Representation Link&lt;/div&gt;&lt;div&gt;Asset NGSI DataSrc Link&lt;/div&gt;" style="rounded=0;whiteSpace=wrap;html=1;" vertex="1" parent="1">
                    <mxGeometry x="330" y="250" width="210" height="280" as="geometry"/>
                </mxCell>
                <mxCell id="5" value="&lt;b&gt;&lt;i&gt;&lt;u&gt;Asset Representation&lt;/u&gt;&lt;/i&gt;&lt;/b&gt;&lt;div&gt;&lt;br&gt;&lt;/div&gt;&lt;div&gt;Obj Resource Link&lt;/div&gt;&lt;div&gt;Texture Resource Link&lt;/div&gt;&lt;div&gt;GeoPose: {&lt;/div&gt;&lt;div&gt;pos:{lat,lon,alt},&lt;/div&gt;&lt;div&gt;ang:{yaw,pitch,roll}&lt;/div&gt;&lt;div&gt;}&lt;/div&gt;&lt;div&gt;&lt;br&gt;&lt;/div&gt;" style="rounded=0;whiteSpace=wrap;html=1;" vertex="1" parent="1">
                    <mxGeometry x="580" y="250" width="210" height="280" as="geometry"/>
                </mxCell>
                <mxCell id="6" value="&lt;b&gt;&lt;i&gt;&lt;u&gt;Asset Data&lt;/u&gt;&lt;/i&gt;&lt;/b&gt;&lt;div&gt;Data src link&lt;/div&gt;&lt;div&gt;credentials/topic/headers/etc&lt;/div&gt;&lt;div&gt;params&lt;/div&gt;" style="rounded=0;whiteSpace=wrap;html=1;" vertex="1" parent="1">
                    <mxGeometry x="580" y="550" width="210" height="100" as="geometry"/>
                </mxCell>
                <mxCell id="8" value="&lt;b&gt;&lt;i&gt;&lt;u&gt;Background&lt;/u&gt;&lt;/i&gt;&lt;/b&gt;&lt;div&gt;&lt;span style=&quot;background-color: transparent;&quot;&gt;t&lt;/span&gt;&lt;span style=&quot;background-color: transparent;&quot;&gt;ype: [tiles/ply/pcd/mesh/gaussSplats]&lt;/span&gt;&lt;div&gt;BG source link&lt;/div&gt;&lt;/div&gt;" style="rounded=0;whiteSpace=wrap;html=1;" vertex="1" parent="1">
                    <mxGeometry x="30" y="590" width="210" height="280" as="geometry"/>
                </mxCell>
                <mxCell id="9" value="&lt;b&gt;&lt;i&gt;&lt;u&gt;Semantic Layers&lt;/u&gt;&lt;/i&gt;&lt;/b&gt;&lt;div&gt;&lt;br&gt;&lt;/div&gt;" style="rounded=0;whiteSpace=wrap;html=1;" vertex="1" parent="1">
                    <mxGeometry x="280" y="590" width="210" height="280" as="geometry"/>
                </mxCell>
                <mxCell id="10" value="" style="endArrow=classic;html=1;" edge="1" parent="1" target="3">
                    <mxGeometry width="50" height="50" relative="1" as="geometry">
                        <mxPoint x="160" y="390" as="sourcePoint"/>
                        <mxPoint x="210" y="340" as="targetPoint"/>
                    </mxGeometry>
                </mxCell>
                <mxCell id="12" value="" style="endArrow=classic;html=1;entryX=-0.006;entryY=0.531;entryDx=0;entryDy=0;entryPerimeter=0;" edge="1" parent="1" target="5">
                    <mxGeometry width="50" height="50" relative="1" as="geometry">
                        <mxPoint x="500" y="400" as="sourcePoint"/>
                        <mxPoint x="670" y="400" as="targetPoint"/>
                    </mxGeometry>
                </mxCell>
                <mxCell id="13" value="" style="endArrow=classic;html=1;entryX=0;entryY=0.5;entryDx=0;entryDy=0;exitX=0.762;exitY=0.607;exitDx=0;exitDy=0;exitPerimeter=0;" edge="1" parent="1" source="3" target="6">
                    <mxGeometry width="50" height="50" relative="1" as="geometry">
                        <mxPoint x="509.9966666666667" y="500" as="sourcePoint"/>
                        <mxPoint x="558.3300000000003" y="570" as="targetPoint"/>
                    </mxGeometry>
                </mxCell>
                <mxCell id="14" value="" style="endArrow=classic;html=1;entryX=0.5;entryY=0;entryDx=0;entryDy=0;" edge="1" parent="1" target="8">
                    <mxGeometry width="50" height="50" relative="1" as="geometry">
                        <mxPoint x="190" y="410" as="sourcePoint"/>
                        <mxPoint x="430" y="500" as="targetPoint"/>
                    </mxGeometry>
                </mxCell>
                <mxCell id="15" value="" style="endArrow=classic;html=1;entryX=0.5;entryY=0;entryDx=0;entryDy=0;" edge="1" parent="1" target="9">
                    <mxGeometry width="50" height="50" relative="1" as="geometry">
                        <mxPoint x="185" y="430.0000000000001" as="sourcePoint"/>
                        <mxPoint x="280" y="518.35" as="targetPoint"/>
                    </mxGeometry>
                </mxCell>
            </root>
        </mxGraphModel>
    </diagram>
</mxfile>